<?xml version="1.0" encoding="UTF-8"?>
<svg width="390" height="844" viewBox="0 0 390 844" xmlns="http://www.w3.org/2000/svg">
  <defs>
    <linearGradient id="brand" x1="0" y1="0" x2="1" y2="1">
      <stop offset="0" stop-color="#7C3AED"/>
      <stop offset="1" stop-color="#4338CA"/>
    </linearGradient>
    <clipPath id="screen"><rect x="10" y="10" width="370" height="824" rx="46"/></clipPath>
  </defs>
  <rect x="2" y="2" width="386" height="840" rx="54" fill="#0b0b12"/>
  <rect x="10" y="10" width="370" height="824" rx="46" fill="#ffffff"/>
  <g clip-path="url(#screen)">
    
  <rect x="0" y="0" width="390" height="844" fill="#E4002B"/>
  <rect x="30" y="150" width="330" height="420" rx="28" fill="#ffffff"/>
  <text x="195" y="210" font-family="Arial" font-size="24" font-weight="800" fill="#1e1b2e" text-anchor="middle">H&amp;M</text>
  <text x="195" y="238" font-family="Arial" font-size="13" fill="#8b869c" text-anchor="middle">Loyalty card</text>
  <g transform="translate(65, 300)"><rect x="0" y="0" width="3" height="150" fill="#1e1b2e"/><rect x="6" y="0" width="2" height="150" fill="#1e1b2e"/><rect x="11" y="0" width="5" height="150" fill="#1e1b2e"/><rect x="19" y="0" width="2" height="150" fill="#1e1b2e"/><rect x="24" y="0" width="4" height="150" fill="#1e1b2e"/><rect x="31" y="0" width="2" height="150" fill="#1e1b2e"/><rect x="36" y="0" width="6" height="150" fill="#1e1b2e"/><rect x="45" y="0" width="3" height="150" fill="#1e1b2e"/><rect x="51" y="0" width="2" height="150" fill="#1e1b2e"/><rect x="56" y="0" width="5" height="150" fill="#1e1b2e"/><rect x="64" y="0" width="2" height="150" fill="#1e1b2e"/><rect x="69" y="0" width="3" height="150" fill="#1e1b2e"/><rect x="75" y="0" width="6" height="150" fill="#1e1b2e"/><rect x="84" y="0" width="2" height="150" fill="#1e1b2e"/><rect x="89" y="0" width="4" height="150" fill="#1e1b2e"/><rect x="96" y="0" width="2" height="150" fill="#1e1b2e"/><rect x="101" y="0" width="5" height="150" fill="#1e1b2e"/><rect x="109" y="0" width="3" height="150" fill="#1e1b2e"/><rect x="115" y="0" width="2" height="150" fill="#1e1b2e"/><rect x="120" y="0" width="4" height="150" fill="#1e1b2e"/><rect x="127" y="0" width="6" height="150" fill="#1e1b2e"/><rect x="136" y="0" width="2" height="150" fill="#1e1b2e"/><rect x="141" y="0" width="3" height="150" fill="#1e1b2e"/><rect x="147" y="0" width="5" height="150" fill="#1e1b2e"/><rect x="155" y="0" width="2" height="150" fill="#1e1b2e"/><rect x="160" y="0" width="4" height="150" fill="#1e1b2e"/></g>
  <text x="195" y="500" font-family="monospace" font-size="18" fill="#1e1b2e" text-anchor="middle">2901 4567 8901</text>
  <text x="195" y="620" font-family="Arial" font-size="15" font-weight="700" fill="#ffffff" text-anchor="middle">Show this at the till</text>

    <!-- status bar -->
    <text x="34" y="44" font-family="Arial" font-size="15" font-weight="700" fill="#1e1b2e">9:41</text>
    <rect x="312" y="30" width="22" height="12" rx="3" fill="#1e1b2e"/>
    <rect x="340" y="30" width="16" height="12" rx="3" fill="#1e1b2e"/>
  </g>
  <rect x="135" y="26" width="120" height="26" rx="13" fill="#0b0b12"/>
  <rect x="140" y="818" width="110" height="5" rx="2.5" fill="#c8c8d0"/>
</svg>